<svg width="75" height="72" viewBox="0 0 75 72" fill="none" xmlns="http://www.w3.org/2000/svg">
<g clip-path="url(#clip0_5_88)">
<path d="M75 36.2438V38.7586L74.9274 39.1617C74.8055 40.2609 74.7188 41.3602 74.55 42.4336C73.9747 45.9169 72.7265 49.2549 70.875 52.261C68.1542 56.7797 64.1979 60.4262 59.4727 62.7703C56.7234 64.1531 53.7524 65.0416 50.6953 65.3953C50.0094 65.4781 49.3297 65.5555 48.6563 65.6274H22.3008C22.1672 65.6039 22.0453 65.5664 21.9094 65.5547C19.2663 65.3971 16.6733 64.7643 14.2547 63.6867C8.94377 61.3195 4.98987 57.4969 2.40237 52.2375C1.26544 49.9074 0.527086 47.4031 0.217993 44.8289L-0.00231934 42.9492V40.507C0.0211182 40.3735 0.0586182 40.2375 0.0703369 40.1039C0.203931 37.7719 0.679712 35.4891 1.51174 33.3047C3.74534 27.4336 7.65237 23.0742 13.193 20.243C16.036 18.803 19.1524 17.9833 22.336 17.8383C23.911 17.7656 25.486 17.8383 27.0352 18.0586C27.1168 18.0685 27.1996 18.0605 27.2777 18.035C27.3559 18.0095 27.4275 17.9671 27.4875 17.911C29.7036 15.6007 32.3009 13.6891 35.1656 12.2602C37.9305 10.8683 40.9179 9.97195 43.9922 9.61173C44.7266 9.52892 45.4547 9.45157 46.1766 9.3797H48.4219C48.5696 9.40314 48.7266 9.42892 48.8625 9.44064C49.9852 9.57423 51.0961 9.66095 52.2071 9.85548C55.6125 10.4414 58.8844 11.6977 61.8024 13.5539C66.2962 16.356 69.896 20.3836 72.1781 25.1625C73.5446 27.9703 74.4235 30.9984 74.7774 34.0992L74.9977 36.2484L75 36.2438ZM33.0563 19.9945C33.1055 20.0555 33.1172 20.093 33.1407 20.093C34.6782 20.8734 36.1547 21.7781 37.5469 22.8024C37.6313 22.8633 37.8516 22.8399 37.9617 22.7789C41.7703 20.3133 45.9211 19.4719 50.3649 20.2641C54.7219 21.0586 58.275 23.2664 60.9844 26.8078C64.0477 30.8109 65.2196 35.3414 64.3781 40.3688C63.8039 43.7391 62.4727 46.7766 60.2156 49.3055C56.0906 53.932 50.925 55.8492 44.8477 55.043C41.1117 54.5414 37.8774 52.8938 35.2032 50.1469C31.7719 46.6313 28.3172 43.1274 24.8766 39.6117C24.4125 39.1359 23.9133 38.7703 23.2524 38.6836C22.699 38.6066 22.1355 38.7115 21.6469 38.9824C21.1582 39.2534 20.7708 39.6758 20.543 40.1859C20.1024 41.1141 20.1657 42.1758 21.1289 43.1391C24.961 46.9711 28.7578 50.8406 32.5922 54.675C33.2532 55.336 33.9571 55.9422 34.7039 56.4938C37.5 58.5563 40.6617 59.7047 44.0789 60.1688C46.7649 60.5227 49.425 60.45 52.0617 59.8383C57.1031 58.6899 61.2774 56.0789 64.561 52.0383C67.2484 48.7572 68.9538 44.7834 69.4805 40.575C69.8187 38.1192 69.753 35.6245 69.286 33.1899C68.5172 29.2219 66.8696 25.6711 64.2211 22.643C59.168 16.868 52.8071 14.2922 45.2391 14.8664C42.3459 15.1089 39.5351 15.9527 36.9867 17.3438C35.5853 18.0769 34.2708 18.9653 33.068 19.9922L33.0563 19.9945ZM31.2141 60.2789C31.1039 60.1805 31.0055 60.0844 30.8977 59.9859C29.3344 58.4836 27.7594 56.9836 26.2102 55.4578C26.0845 55.3181 25.9299 55.2075 25.757 55.1338C25.5841 55.0601 25.3972 55.0251 25.2094 55.0313C23.6344 55.0688 22.0711 55.0805 20.5219 54.7266C12.8321 52.957 8.36252 44.4492 11.1961 36.9656C13.4297 31.0688 19.6196 27.4805 25.7227 28.5797C28.4578 29.0813 30.8625 30.2649 32.8383 32.3274C35.243 34.8539 37.7086 37.2961 40.1508 39.7992C40.6992 40.3617 41.3344 40.6289 42.1031 40.5188C43.0805 40.3711 43.8727 39.8953 44.2266 38.9063C44.5805 37.9289 44.4094 37.0149 43.6899 36.2695C41.1375 33.6445 38.6485 30.9469 36 28.432C30.8485 23.55 24.7828 22.0969 18.068 24.1711C9.0469 26.9672 3.76174 36.4383 5.82424 45.7899C7.70393 54.3235 15.0399 60.293 23.611 60.3047H30.8016C30.9117 60.3047 31.0336 60.293 31.2164 60.2813L31.2141 60.2789Z" fill="black"/>
</g>
<defs>
<clipPath id="clip0_5_88">
<rect width="75" height="75" fill="white"/>
</clipPath>
</defs>
</svg>
