<svg width="75" height="75" viewBox="0 0 75 75" fill="none" xmlns="http://www.w3.org/2000/svg">
<path fill-rule="evenodd" clip-rule="evenodd" d="M27.0844 29.4281C26.0243 29.4281 24.9747 29.6369 23.9954 30.0426C23.0161 30.4482 22.1262 31.0428 21.3767 31.7923C20.6271 32.5419 20.0326 33.4317 19.6269 34.411C19.2213 35.3904 19.0125 36.44 19.0125 37.5C19.0125 38.56 19.2213 39.6096 19.6269 40.589C20.0326 41.5683 20.6271 42.4581 21.3767 43.2077C22.1262 43.9572 23.0161 44.5518 23.9954 44.9574C24.9747 45.3631 26.0243 45.5719 27.0844 45.5719H35.1562V29.4281H27.0844ZM35.1562 24.7406H27.0844C24.9431 24.7406 22.8896 23.89 21.3756 22.376C19.8615 20.8619 19.0109 18.8084 19.0109 16.6672C19.0109 14.526 19.8615 12.4725 21.3756 10.9584C22.8896 9.44434 24.9431 8.59375 27.0844 8.59375H35.1562V24.7406ZM39.8437 8.59375V24.7406H47.9156C50.0293 24.699 52.0424 23.8302 53.5225 22.3206C55.0027 20.8111 55.8318 18.7813 55.8318 16.6672C55.8318 14.5531 55.0027 12.5233 53.5225 11.0137C52.0424 9.5042 50.0293 8.63534 47.9156 8.59375H39.8437ZM47.9156 29.425C45.7968 29.4247 43.7629 30.2576 42.2528 31.7437C40.7426 33.2299 39.8774 35.2502 39.8437 37.3688V37.6281C39.8696 39.2187 40.3649 40.7663 41.2674 42.0763C42.17 43.3863 43.4395 44.4005 44.9165 44.9913C46.3935 45.5822 48.0122 45.7234 49.5693 45.3973C51.1263 45.0712 52.5523 44.2923 53.6681 43.1583C54.7838 42.0244 55.5397 40.5861 55.8406 39.024C56.1416 37.4619 55.9743 35.8457 55.3597 34.3783C54.7451 32.911 53.7106 31.6581 52.3862 30.7768C51.0617 29.8955 49.5064 29.4252 47.9156 29.425ZM27.0844 50.2594C25.4871 50.2588 23.9256 50.7318 22.5973 51.6187C21.2689 52.5057 20.2335 53.7666 19.6218 55.242C19.0101 56.7175 18.8498 58.3412 19.161 59.9078C19.4722 61.4744 20.2411 62.9135 21.3702 64.0432C22.4994 65.1728 23.9382 65.9422 25.5047 66.254C27.0712 66.5658 28.695 66.4061 30.1707 65.795C31.6464 65.1839 32.9077 64.1489 33.7951 62.8209C34.6826 61.4929 35.1562 59.9316 35.1562 58.3344V50.2594H27.0844Z" fill="black"/>
</svg>
