<svg width="75" height="75" viewBox="0 0 75 75" fill="none" xmlns="http://www.w3.org/2000/svg">
<path d="M1.17188 0.585938V73.8281H74.4141V0.585938H1.17188ZM39.9135 62.9959C38.8324 65.1926 36.7688 66.6357 34.3775 67.3324C30.7031 68.1762 27.1887 67.6951 24.5742 66.126C22.8246 65.0525 21.4582 63.4002 20.5307 61.4965L26.1088 58.0805C26.1574 58.101 26.3039 58.3658 26.4996 58.708C27.2109 59.8998 27.8244 60.7436 29.0303 61.3359C30.215 61.7402 32.816 61.9986 33.8203 59.9139C34.4338 58.8533 34.2387 55.4443 34.2387 51.6727C34.2381 45.7459 34.2656 39.8438 34.2656 33.9844H41.1264C41.1264 40.4297 41.1615 46.534 41.1264 52.8234C41.141 56.6789 41.4756 60.116 39.9135 62.9959ZM68.3748 61.0576C65.99 69.215 52.6939 69.4799 47.3807 64.0904C46.258 62.8219 45.5543 62.1592 44.8846 60.6949C47.7082 59.0707 47.7082 59.0707 50.4557 57.4811C51.948 59.775 53.3279 61.0365 55.8105 61.5527C59.1785 61.9641 62.567 60.8068 61.807 57.2297C61.026 54.3082 54.9105 53.5975 50.7486 50.4732C46.5234 47.6355 45.5332 40.7402 49.0055 36.8004C50.1627 35.3432 52.1361 34.2557 54.2068 33.733L56.3678 33.4535C60.5168 33.3697 63.1102 34.4654 65.0139 36.5912C65.5436 37.1279 65.976 37.7068 66.7846 38.9613C64.5744 40.3699 64.5814 40.3564 61.4156 42.4061C60.7395 40.9494 59.6174 40.0354 58.4314 39.6381C56.5904 39.0803 54.2689 39.6867 53.7873 41.632C53.6203 42.2314 53.6549 42.7893 53.9203 43.7795C54.6662 45.4805 57.1693 46.2199 59.4146 47.2518C65.8781 49.8732 68.0607 52.684 68.5975 56.0297C69.1143 58.9102 68.4727 60.7787 68.3748 61.0576Z" fill="black"/>
</svg>
