<svg width="90" height="75" viewBox="0 0 90 75" fill="none" xmlns="http://www.w3.org/2000/svg">
<g clip-path="url(#clip0_5_97)">
<path d="M84.677 57.0882C84.9097 57.6906 84.7188 58.1949 84.2024 58.6092C79.3674 62.4892 74.2919 66.009 68.7674 68.8569L64.1549 71.2316C65.1062 71.989 66.1799 72.2021 67.32 72.1597C68.5681 72.113 69.6136 71.5418 70.579 70.8076C71.7332 69.93 72.8244 68.9592 74.037 68.1724C76.9725 66.2676 80.1366 66.4397 82.9132 68.5877C84.0927 69.5003 85.1769 70.5426 86.4007 71.3872C86.9924 71.7955 87.75 72.0181 88.4763 72.1782L88.637 72.2129C89.5184 72.398 90.0538 72.8403 89.9951 73.599C89.9371 74.3518 89.3387 74.7917 88.4352 74.7335C86.521 74.6101 85.0205 73.626 83.6142 72.4358C82.736 71.6928 81.8881 70.9008 80.9402 70.2563C79.1828 69.0615 77.3181 69.0268 75.5276 70.1739C74.4726 70.85 73.5131 71.6771 72.5256 72.4548C70.9341 73.7087 69.2163 74.6318 67.1207 74.6634C64.8222 74.6981 62.9722 73.6698 61.2777 72.2571C60.6716 71.7517 60.0715 71.239 59.4538 70.748C57.1384 68.9066 54.7661 68.9077 52.4426 70.7494C52.1722 70.9644 51.9036 71.1817 51.6368 71.4012L51.1024 71.8393C50.6587 72.2061 50.2075 72.5639 49.7493 72.9125C46.9051 75.0556 43.6479 75.1579 40.7008 73.1511C39.6285 72.4211 38.6508 71.5526 37.6281 70.7494C35.3043 68.9252 33.3756 68.9305 31.0103 70.7417L30.8169 70.8903L30.2369 71.3371C29.4634 71.9329 28.6847 72.5234 27.8673 73.053C24.7876 75.0493 21.6527 74.9658 18.5917 73.0365C17.325 72.2382 16.1687 71.266 14.9688 70.3621L14.7885 70.2268C14.3097 69.8704 13.8365 69.5052 13.345 69.167C12.6594 68.6953 11.9211 68.5635 11.1786 69.0128C9.86662 69.807 8.57005 70.6264 7.27068 71.4408C6.04267 72.2105 4.85615 73.0565 3.57927 73.7336C2.8874 74.1002 2.0563 74.2709 1.26775 74.3715C0.533687 74.4647 0.0288431 73.9215 0.0007181 73.2359C-0.0267038 72.5609 0.415562 72.1369 1.10287 71.942L1.14294 71.9312C1.87349 71.7363 2.62619 71.4889 3.26005 71.0918C5.04845 69.9706 6.78166 68.7615 8.53455 67.5843C8.58447 67.551 8.6133 67.4876 8.67271 67.4115L7.58462 65.3599C7.22087 64.6753 6.85841 63.9896 6.49724 63.3026C5.86443 62.0977 6.27611 61.2896 7.63525 61.1928C11.2996 60.9317 14.9664 60.7078 18.6321 60.4726L39.7333 59.1226C44.7209 58.8026 49.7081 58.4795 54.6958 58.1588C61.7289 57.7065 68.7622 57.2544 75.7958 56.8025C77.6661 56.6827 79.5365 56.5656 81.4068 56.4436L83.2771 56.3199C83.9211 56.2768 84.4379 56.4706 84.677 57.0882ZM79.3262 59.2186L79.2633 59.0655L9.44052 63.5469L9.61279 63.8679C10.0656 64.7133 10.4664 65.4766 10.9041 66.2182C10.9445 66.2865 11.0858 66.3005 11.2338 66.3058L11.385 66.3093L11.4304 66.3111L11.4733 66.3135C12.0801 66.358 12.7431 66.2515 13.282 66.4635C14.142 66.8021 14.9639 67.2871 15.7219 67.8219C17.0789 68.7797 18.3347 69.883 19.7086 70.8135C22.1506 72.4663 24.4501 72.4172 26.8524 70.7413C27.8659 70.0341 28.8274 69.2525 29.8319 68.5313C32.972 66.276 35.9469 66.3226 39.0122 68.6774C39.908 69.3657 40.7619 70.108 41.656 70.7981C43.8982 72.5287 46.1732 72.535 48.4038 70.816C49.1467 70.2436 49.854 69.6254 50.5832 69.0349C53.89 66.357 57.2418 66.0987 60.4937 68.4871L60.5922 68.56C61.6328 69.3422 62.4073 69.303 63.4444 68.7875L63.9492 68.5358C68.5747 66.2238 73.1127 63.767 77.3023 60.7141C77.9801 60.2199 78.6519 59.7174 79.3262 59.2186ZM14.49 0.236404C22.0472 3.63524 28.8338 8.20743 35.0019 13.7028C42.6765 20.5411 48.7255 28.6158 53.1932 37.851C55.5444 42.712 57.3733 47.7608 58.2135 53.1216L58.2536 53.3844L58.3147 53.8043C58.3158 54.8417 57.4822 55.4511 56.6132 55.101C52.2988 53.363 47.8438 52.1578 43.2401 51.4695C37.1563 50.5597 31.1488 50.7861 25.2341 52.5612C21.3117 53.7387 17.5806 55.3446 14.1135 57.5361C13.4733 57.9408 12.7944 57.8701 12.3768 57.3748C11.9422 56.8607 11.9429 56.24 12.4446 55.6972C16.0668 51.7765 18.1744 47.0679 19.5719 42.0051C20.937 37.0583 21.4355 32.0035 21.1296 26.8894C20.9001 23.0459 19.9754 19.3267 18.7654 15.6759C17.1999 10.9526 15.1685 6.43757 12.7192 2.10685C12.3191 1.3989 12.3265 0.847619 12.7311 0.394816C13.1499 -0.0741096 13.6892 -0.123876 14.49 0.236404ZM37.7881 9.06538C38.4887 9.269 39.4327 9.47017 40.3207 9.81432C43.8655 11.1899 46.9195 13.3723 49.8291 15.7565C54.5576 19.6313 58.8871 23.9171 62.7592 28.6439C65.4539 31.9337 67.6645 35.5526 69.6801 39.2879C71.9652 43.524 73.9336 47.9031 75.6039 52.4143L75.7199 52.7294C75.7642 52.8493 75.8095 52.9688 75.85 53.0897C76.0261 53.6112 76.0043 54.1158 75.5944 54.5143C75.176 54.9212 74.674 54.9482 74.1442 54.7414L74.1073 54.7267C73.3479 54.4155 72.578 54.1285 71.8204 53.8141L71.4962 53.6778C69.3636 52.7651 67.172 52.5829 64.915 53.0939C64.7068 53.1412 64.4959 53.1769 64.285 53.2092C63.4476 53.3378 62.9244 53.0115 62.6959 52.2033C60.4976 44.4279 57.3982 37.0243 53.4744 29.9602L53.2783 29.6084C50.7484 25.1024 47.8522 20.8649 44.0884 17.2649C41.8662 15.1386 39.5276 13.1567 36.9447 11.4734C36.3463 11.0834 36.122 10.5419 36.3189 9.95101C36.5129 9.36993 36.9654 9.14143 37.7881 9.06538ZM16.7499 4.1315C16.7569 4.32811 16.81 4.48197 16.8817 4.62566C18.5242 7.92811 19.9526 11.3203 21.1124 14.8204C22.2128 18.1407 23.0565 21.5248 23.4608 25.005C23.9133 28.9001 23.7273 32.7854 23.1912 36.6594C22.4856 41.7615 21.066 46.6414 18.6177 51.1993L18.3329 51.7302L17.9012 52.5373C17.9916 52.5619 18.0376 52.591 18.0672 52.5794C18.3252 52.4782 18.5813 52.3722 18.8353 52.2615C24.0314 49.9877 29.4458 48.6146 35.1327 48.4733C41.6261 48.3121 47.9155 49.4792 54.0573 51.5119L54.4767 51.6507C54.7805 51.7502 55.1046 51.8525 55.5244 51.9882C53.0364 41.1314 47.8786 31.7995 40.9268 23.4051C34.225 15.3128 26.0736 8.98968 16.7499 4.1315ZM47.6044 17.2947L47.6867 17.3876L47.8501 17.5691C47.9134 17.6399 47.9707 17.7065 48.0245 17.7759C48.407 18.268 48.7944 18.7563 49.1864 19.2408L49.8259 20.0336C50.7864 21.2266 51.7349 22.428 52.5688 23.703C57.844 31.7686 61.7231 40.49 64.5508 49.681L64.6362 49.9597C64.7831 50.4408 64.9849 50.5761 65.4553 50.5053L65.488 50.5001C67.6034 50.1489 69.6709 50.3315 71.6755 51.1011L71.7792 51.1414C71.9708 51.2171 72.1754 51.2592 72.5467 51.3675C69.8309 44.6122 66.6211 38.3241 62.5595 32.4626C59.0474 27.3941 49.6427 18.3948 47.604 17.2943" fill="#1A222D"/>
</g>
<defs>
<clipPath id="clip0_5_97">
<rect width="90" height="75" fill="white"/>
</clipPath>
</defs>
</svg>
