<svg width="75" height="75" viewBox="0 0 75 75" fill="none" xmlns="http://www.w3.org/2000/svg">
<g clip-path="url(#clip0_2_47)">
<mask id="mask0_2_47" style="mask-type:luminance" maskUnits="userSpaceOnUse" x="0" y="0" width="75" height="75">
<path d="M0 0H75V75H0V0Z" fill="white"/>
</mask>
<g mask="url(#mask0_2_47)">
<path d="M35.0437 0.0191406C34.8812 0.0347656 34.3688 0.0878906 33.9063 0.122266C23.2563 1.08477 13.2812 6.83164 6.95625 15.666C3.46561 20.5163 1.19527 26.1365 0.3375 32.0504C0.0375 34.1129 0 34.7191 0 37.5129C0 40.3066 0.0375 40.916 0.3375 42.9754C2.375 57.0598 12.4 68.891 25.9906 73.2754C28.425 74.0598 30.9906 74.5941 33.9063 74.9191C35.0438 75.0441 39.9562 75.0441 41.0937 74.9191C46.1281 74.3598 50.3969 73.1129 54.6031 70.966C55.25 70.6379 55.375 70.5473 55.2875 70.4754C53.23 67.762 51.1935 65.0327 49.1781 62.2879L43.1812 54.1848L35.6687 43.0629C33.1691 39.3429 30.6461 35.6387 28.1 31.9504C28.0719 31.941 28.0437 36.8816 28.0281 42.9191C28.0062 53.4816 27.9969 53.9066 27.8656 54.1566C27.7367 54.4478 27.5085 54.6837 27.2219 54.8223C26.9875 54.941 26.7844 54.9629 25.675 54.9629H24.4062L24.0688 54.7504C23.8599 54.6185 23.6904 54.4329 23.5781 54.2129L23.4219 53.8848L23.4375 39.1848L23.4594 24.4785L23.6875 24.191C23.8389 24.0091 24.0234 23.8574 24.2313 23.7441C24.5313 23.5973 24.6469 23.5848 25.9187 23.5848C27.4125 23.5848 27.6625 23.641 28.05 24.066C28.1594 24.1848 32.2281 30.316 37.0969 37.6973L51.8906 60.1098L57.8281 69.1035L58.1312 68.9066C60.9892 67.0075 63.5799 64.7341 65.8344 62.1473C70.5594 56.7385 73.6246 50.082 74.6625 42.9754C74.9625 40.9129 75 40.3066 75 37.5129C75 34.7191 74.9625 34.1129 74.6625 32.0504C72.625 17.9691 62.6 6.13477 49.0094 1.75039C46.4693 0.942795 43.8538 0.395195 41.2031 0.116016C40.4969 0.0410156 35.6531 -0.0402344 35.0469 0.0222656M50.4 22.7098C50.5746 22.7971 50.73 22.9184 50.8571 23.0665C50.9843 23.2145 51.0807 23.3865 51.1406 23.5723C51.1969 23.7598 51.2125 27.8379 51.1969 37.0254L51.175 50.2066L48.8531 46.6441L46.5219 43.0816V33.5004C46.5219 27.3035 46.55 23.8223 46.5937 23.6535C46.6461 23.4585 46.7373 23.276 46.8619 23.1171C46.9865 22.9581 47.1419 22.826 47.3188 22.7285C47.6219 22.5723 47.7313 22.5598 48.8813 22.5598C49.9656 22.5598 50.1563 22.5754 50.4 22.7066" fill="black"/>
</g>
</g>
<defs>
<clipPath id="clip0_2_47">
<rect width="75" height="75" fill="white"/>
</clipPath>
</defs>
</svg>
