<svg width="75" height="75" viewBox="0 0 75 75" fill="none" xmlns="http://www.w3.org/2000/svg">
<path d="M59.8125 23.4375C62.1829 23.4375 64.4562 24.3791 66.1323 26.0552C67.8084 27.7313 68.75 30.0046 68.75 32.375V44.1875C68.75 45.3612 68.5188 46.5234 68.0697 47.6077C67.6205 48.6921 66.9622 49.6773 66.1323 50.5073C65.3023 51.3372 64.3171 51.9955 63.2327 52.4447C62.1484 52.8938 60.9862 53.125 59.8125 53.125H37.5C37.5 54.3437 38.5 56.125 39.7188 56.125H53.125V61.375C53.125 63.7454 52.1834 66.0187 50.5073 67.6948C48.8312 69.3709 46.5579 70.3125 44.1875 70.3125H30.8125C28.4421 70.3125 26.1688 69.3709 24.4927 67.6948C22.8166 66.0187 21.875 63.7454 21.875 61.375V49.6563C21.875 48.484 22.1064 47.3233 22.5559 46.2407C23.0055 45.1581 23.6643 44.1749 24.4946 43.3475C25.325 42.5201 26.3105 41.8647 27.3946 41.419C28.4788 40.9732 29.6403 40.7459 30.8125 40.75H47.2187C48.391 40.75 49.5517 40.5186 50.6343 40.0691C51.7169 39.6195 52.7001 38.9607 53.5275 38.1304C54.3549 37.3 55.0103 36.3145 55.456 35.2304C55.9018 34.1462 56.1291 32.9847 56.125 31.8125V23.4375H59.8125ZM46.4375 60.2813C45.1875 60.2813 44.1875 61.2188 44.1875 63.0625C44.1875 64.9063 45.1875 65.2812 46.4375 65.2812C46.7289 65.2812 47.0174 65.2239 47.2866 65.1124C47.5558 65.0009 47.8004 64.8374 48.0064 64.6314C48.2124 64.4254 48.3759 64.1808 48.4874 63.9116C48.5989 63.6424 48.6562 63.3539 48.6562 63.0625C48.6562 61.2188 47.6562 60.2813 46.4375 60.2813ZM15.1875 54.6875C12.8171 54.6875 10.5438 53.7459 8.86773 52.0698C7.19163 50.3937 6.25 48.1204 6.25 45.75V33.9375C6.25 32.7638 6.48118 31.6016 6.93033 30.5173C7.37948 29.4329 8.03781 28.4477 8.86773 27.6177C10.5438 25.9416 12.8171 25 15.1875 25H37.5C37.5 23.7813 36.5 22 35.2812 22H21.875V16.75C21.875 14.3796 22.8166 12.1063 24.4927 10.4302C26.1688 8.75413 28.4421 7.8125 30.8125 7.8125H44.1875C45.3612 7.8125 46.5234 8.04368 47.6077 8.49283C48.6921 8.94198 49.6773 9.60031 50.5073 10.4302C51.3372 11.2602 51.9955 12.2454 52.4447 13.3298C52.8938 14.4141 53.125 15.5763 53.125 16.75V28.4687C53.125 29.641 52.8936 30.8017 52.4441 31.8843C51.9945 32.9669 51.3357 33.9501 50.5054 34.7775C49.675 35.6049 48.6895 36.2603 47.6054 36.706C46.5212 37.1518 45.3597 37.3791 44.1875 37.375H27.7813C26.609 37.375 25.4483 37.6064 24.3657 38.0559C23.2831 38.5055 22.2999 39.1643 21.4725 39.9946C20.6451 40.825 19.9897 41.8105 19.544 42.8946C19.0982 43.9788 18.8709 45.1403 18.875 46.3125V54.6875H15.1875ZM28.5625 17.8438C29.8125 17.8438 30.8125 16.9063 30.8125 15.0625C30.8125 13.2188 29.8125 12.8438 28.5625 12.8438C27.3438 12.8438 26.3438 13.2188 26.3438 15.0625C26.3438 16.9063 27.3438 17.8438 28.5625 17.8438Z" fill="black"/>
</svg>
