<svg width="66" height="75" viewBox="0 0 66 75" fill="none" xmlns="http://www.w3.org/2000/svg">
<g clip-path="url(#clip0_5_101)">
<path d="M46.9775 9.53481L51.0331 13.5788L57.0641 14.03C57.3368 14.053 57.6666 14.262 57.7183 14.6401L65.8977 70.1651L43.7901 74.9648L46.9775 9.53481ZM41.7226 75L0.0116577 67.1571L5.70317 23.096C5.97831 21.1141 6.04458 21.0478 8.14036 20.3881L14.9033 18.2832C16.3511 12.1223 20.9674 0 30.6304 0C31.8925 0 33.3541 0.680127 34.5336 2.24575C38.9558 2.03906 41.39 5.78013 42.7261 9.63809L44.9401 8.95225L41.7226 75ZM33.2362 5.32822C30.8795 6.34307 28.1843 9.03281 26.7464 14.6021L34.214 12.2814C34.2413 9.00864 33.8302 6.82266 33.2362 5.32822ZM17.8833 17.3565L23.786 15.5219C25.1879 8.16665 28.5073 4.48315 31.6041 3.0208C31.2021 2.74292 30.7819 2.60098 30.3649 2.60098C23.4242 2.60098 19.5251 11.7463 17.8833 17.3565ZM34.884 26.8687C34.884 26.8687 32.9543 25.7458 29.0478 25.7458C18.91 25.7458 13.8878 32.5412 13.8878 39.5632C13.8878 47.9062 22.1826 48.1326 22.1826 53.2103C22.1826 54.4377 21.3176 56.1174 19.1917 56.1174C15.9379 56.1174 12.082 52.7952 12.082 52.7952L10.1183 59.3077C10.1183 59.3077 13.8694 63.8893 21.2048 63.8893C27.3177 63.8893 31.8512 59.2702 31.8512 52.0973C31.8512 42.98 21.7405 41.4886 21.7405 37.5961C21.7405 36.8827 21.9667 34.0516 26.4617 34.0516C29.5279 34.0516 32.0293 35.3914 32.0293 35.3914L34.884 26.8687ZM36.7485 11.494L40.3641 10.3712C39.4482 7.5624 38.0246 5.12212 35.8873 4.85273C36.5442 6.75234 36.7771 9.01216 36.7485 11.494Z" fill="black"/>
</g>
<defs>
<clipPath id="clip0_5_101">
<rect width="66" height="75" fill="white"/>
</clipPath>
</defs>
</svg>
