<svg width="75" height="75" viewBox="0 0 75 75" fill="none" xmlns="http://www.w3.org/2000/svg">
<path d="M29.0188 48.2031C27.9094 49.3125 27.9094 51.3344 29.0188 52.4437C30.1282 53.5531 32.15 53.5531 33.2594 52.4437L52.4438 33.2594C54.8657 30.8375 58.6 30.8375 60.925 33.2594C63.3469 35.6844 63.3469 39.4187 60.925 41.7406L42.1438 60.6219C44.5688 63.0469 48.3032 63.0469 50.6251 60.6219L65.2657 45.9812C69.9125 41.3375 69.9125 33.6625 65.2657 28.8156C60.6219 24.1719 52.9469 24.1719 48.1032 28.8156L29.0188 48.2031ZM58.9063 35.3812C57.7938 34.2687 55.775 34.2687 54.6657 35.3812L35.4782 54.6625C33.0563 57.0875 29.3219 57.0875 27 54.6625C25.8875 53.5531 23.8688 53.5531 22.7594 54.6625C21.6469 55.775 21.6469 57.7937 22.7594 58.9062C27.4032 63.55 35.0782 63.55 39.9219 58.9062L59.0063 39.7219C60.0157 38.5094 60.0157 36.4937 58.9063 35.3812ZM26.8969 45.9812L46.0844 26.7969C47.1938 25.6875 47.1938 23.6687 46.0844 22.5562C44.9719 21.4469 42.9532 21.4469 41.8407 22.5562L22.5594 41.7437C20.1344 44.1656 16.3969 44.1656 14.075 41.7437C13.4987 41.1767 13.0409 40.5005 12.7285 39.7548C12.416 39.009 12.2551 38.2086 12.2551 37.4C12.2551 36.5914 12.416 35.7909 12.7285 35.0452C13.0409 34.2994 13.4987 33.6233 14.075 33.0562L32.8563 14.3781C30.4313 11.9562 26.6969 11.9562 24.375 14.3781L9.73442 29.0187C5.08755 33.6625 5.08755 41.3375 9.73442 46.1844C14.3782 50.8281 22.2532 50.8281 26.8969 45.9812ZM16.2969 39.625C17.4063 40.7344 19.425 40.7344 20.5375 39.625L39.8219 20.4375C42.2469 18.0156 45.9813 18.0156 48.3032 20.4375C49.4157 21.55 51.4344 21.55 52.5438 20.4375C53.6563 19.3281 53.6563 17.3125 52.5438 16.2C47.9 11.5531 40.225 11.5531 35.3813 16.2L16.1938 35.3844C15.9017 35.6583 15.6708 35.9908 15.5161 36.3602C15.3614 36.7296 15.2865 37.1274 15.2962 37.5278C15.306 37.9281 15.4001 38.3218 15.5726 38.6832C15.745 39.0447 15.9919 39.3656 16.2969 39.625Z" fill="black"/>
</svg>
