<svg width="75" height="72" viewBox="0 0 75 72" fill="none" xmlns="http://www.w3.org/2000/svg">
<path d="M37.5 18.75C29.1562 18.75 23.9688 22.9062 21.875 31.25C25 27.0937 28.6562 25.5312 32.8125 26.5625C35.1875 27.1562 36.9062 28.875 38.7812 30.7813C41.8437 33.9063 45.3125 37.5 53.125 37.5C61.4688 37.5 66.6562 33.3438 68.75 25C65.625 29.1563 61.9688 30.7188 57.8125 29.6875C55.4375 29.0938 53.75 27.375 51.8438 25.4687C48.7813 22.3437 45.3125 18.75 37.5 18.75ZM21.875 37.5C13.5312 37.5 8.34375 41.6562 6.25 50C9.375 45.8437 13.0312 44.2812 17.1875 45.3125C19.5625 45.9062 21.25 47.625 23.1562 49.5313C26.2187 52.6563 29.6875 56.25 37.5 56.25C45.8438 56.25 51.0312 52.0938 53.125 43.75C50 47.9063 46.3438 49.4688 42.1875 48.4375C39.8125 47.8438 38.125 46.125 36.2188 44.2187C33.1563 41.0937 29.6875 37.5 21.875 37.5Z" fill="black"/>
</svg>
