<svg width="75" height="69" viewBox="0 0 75 69" fill="none" xmlns="http://www.w3.org/2000/svg">
<g clip-path="url(#clip0_5_90)">
<mask id="mask0_5_90" style="mask-type:luminance" maskUnits="userSpaceOnUse" x="0" y="0" width="75" height="75">
<path d="M0 0H75V75H0V0Z" fill="white"/>
</mask>
<g mask="url(#mask0_5_90)">
<path d="M73.2156 1.09659e-05H1.78125C1.54707 1.06055e-05 1.31519 0.0461874 1.09888 0.135899C0.88256 0.22561 0.686058 0.357096 0.520613 0.522831C0.355167 0.688567 0.224027 0.885299 0.134694 1.10177C0.0453621 1.31824 -0.000408096 1.55021 2.7463e-06 1.78439V73.2188C-0.000408919 73.4532 0.0454643 73.6854 0.134992 73.9021C0.224519 74.1188 0.35594 74.3156 0.521716 74.4814C0.687493 74.6472 0.884364 74.7786 1.10104 74.8681C1.31772 74.9577 1.54993 75.0035 1.78438 75.0031H73.2188C73.4532 75.0035 73.6854 74.9577 73.9021 74.8681C74.1188 74.7786 74.3156 74.6472 74.4814 74.4814C74.6472 74.3156 74.7786 74.1188 74.8681 73.9021C74.9577 73.6854 75.0035 73.4532 75.0031 73.2188V1.78126C75.0031 1.54682 74.9568 1.31468 74.8669 1.09816C74.777 0.88164 74.6453 0.684998 74.4792 0.519512C74.3131 0.354026 74.116 0.22295 73.8992 0.133802C73.6824 0.0446547 73.4501 -0.000811644 73.2156 1.09659e-05ZM44.6438 40.0813H35.7156V67.8563H28.5719V40.0813H19.6438V33.9281H44.6438V40.0813ZM46.6438 66.2688V58.8469C46.6438 58.8469 50.7 61.9031 55.5656 61.9031C60.4313 61.9031 60.2437 58.7219 60.2437 58.2844C60.2437 53.6688 46.4563 53.6688 46.4563 43.4375C46.4563 29.525 66.5469 35.0156 66.5469 35.0156L66.2969 41.6281C66.2969 41.6281 62.9281 39.3813 59.1219 39.3813C55.3156 39.3813 53.9437 41.1938 53.9437 43.125C53.9437 48.1156 67.8563 47.6188 67.8563 57.6625C67.8563 73.1313 46.6438 66.2719 46.6438 66.2719" fill="black"/>
</g>
</g>
<defs>
<clipPath id="clip0_5_90">
<rect width="75" height="75" fill="white"/>
</clipPath>
</defs>
</svg>
