<svg width="75" height="75" viewBox="0 0 75 75" fill="none" xmlns="http://www.w3.org/2000/svg">
<path d="M37.5 6.25C20.2812 6.25 6.25 20.2812 6.25 37.5C6.25 54.7188 20.2812 68.75 37.5 68.75C54.7188 68.75 68.75 54.7188 68.75 37.5C68.75 20.2812 54.7188 6.25 37.5 6.25ZM9.40625 37.5C9.40625 33.4375 10.2812 29.5625 11.8437 26.0625L25.25 62.7813C15.875 58.2188 9.40625 48.625 9.40625 37.5ZM37.5 65.5937C34.75 65.5937 32.0938 65.1875 29.5625 64.4375L38 39.9375L46.625 63.5938C46.6875 63.7188 46.75 63.875 46.8125 63.9687C43.9062 65.0312 40.7812 65.5937 37.5 65.5937ZM41.375 24.3125C43.0625 24.2188 44.5938 24.0313 44.5938 24.0313C46.0938 23.8438 45.9375 21.625 44.4063 21.7187C44.4063 21.7187 39.8438 22.0625 36.9063 22.0625C34.1563 22.0625 29.5 21.7187 29.5 21.7187C28 21.6562 27.8125 23.9687 29.3438 24.0625C29.3438 24.0625 30.7812 24.25 32.2812 24.3437L36.6562 36.3438L30.5 54.7813L20.2812 24.3125C21.9687 24.25 23.5 24.0625 23.5 24.0625C25 23.875 24.8438 21.6563 23.3125 21.75C23.3125 21.75 18.75 22.0938 15.8125 22.0938C15.2812 22.0938 14.6563 22.0937 14 22.0625C19.0625 14.4375 27.6875 9.40625 37.5 9.40625C44.8125 9.40625 51.4687 12.1875 56.4687 16.7812C56.3437 16.7812 56.2188 16.75 56.0938 16.75C53.3438 16.75 51.375 19.1563 51.375 21.75C51.375 24.0625 52.7187 26.0312 54.125 28.3437C55.1875 30.2187 56.4375 32.625 56.4375 36.0938C56.4375 38.5 55.5 41.2813 54.3125 45.1875L51.5 54.5625L41.375 24.3125ZM62.1562 24.0313C65.6647 30.4555 66.5272 37.9953 64.5603 45.0459C62.5934 52.0965 57.9523 58.101 51.625 61.7813L60.2188 36.9687C61.8125 32.9687 62.3438 29.75 62.3438 26.9062C62.3438 25.875 62.2812 24.9063 62.1562 24.0313Z" fill="black"/>
</svg>
